<svg xmlns="http://www.w3.org/2000/svg" viewBox="0 0 1020 364" role="img" aria-labelledby="title desc">
  <title id="title">Logo Miradent Centro Odontológico</title>
  <desc id="desc">Versión vectorizada del logo Miradent para uso en página web. Fondo transparente.</desc>
  <g fill-rule="evenodd" clip-rule="evenodd">
    <path fill="#7A7A7A" d="M65.0,31.0 L57.0,37.0 L55.0,37.0 L42.0,52.0 L30.0,77.0 L31.0,78.0 L29.0,82.0 L29.0,88.0 L27.0,90.0 L26.0,102.0 L25.0,103.0 L24.0,140.0 L25.0,141.0 L25.0,153.0 L27.0,160.0 L27.0,168.0 L29.0,171.0 L29.0,179.0 L31.0,185.0 L31.0,190.0 L34.0,196.0 L34.0,202.0 L36.0,204.0 L37.0,211.0 L39.0,214.0 L39.0,217.0 L42.0,223.0 L42.0,226.0 L44.0,229.0 L47.0,240.0 L49.0,241.0 L49.0,244.0 L52.0,249.0 L52.0,252.0 L54.0,253.0 L55.0,258.0 L58.0,262.0 L58.0,264.0 L61.0,267.0 L61.0,270.0 L64.0,273.0 L66.0,279.0 L69.0,282.0 L69.0,284.0 L81.0,301.0 L82.0,304.0 L88.0,310.0 L88.0,312.0 L98.0,322.0 L97.0,324.0 L99.0,323.0 L106.0,329.0 L110.0,331.0 L113.0,331.0 L123.0,324.0 L130.0,313.0 L130.0,311.0 L136.0,303.0 L138.0,297.0 L141.0,294.0 L140.0,293.0 L142.0,291.0 L143.0,293.0 L142.0,290.0 L144.0,289.0 L147.0,280.0 L151.0,276.0 L154.0,268.0 L159.0,263.0 L163.0,256.0 L169.0,250.0 L181.0,244.0 L188.0,247.0 L195.0,252.0 L199.0,257.0 L197.0,259.0 L199.0,259.0 L200.0,261.0 L201.0,259.0 L206.0,265.0 L206.0,309.0 L205.0,310.0 L204.0,308.0 L206.0,311.0 L206.0,315.0 L205.0,316.0 L206.0,324.0 L205.0,327.0 L209.0,334.0 L215.0,335.0 L216.0,337.0 L217.0,336.0 L218.0,337.0 L220.0,336.0 L227.0,336.0 L230.0,335.0 L233.0,332.0 L235.0,333.0 L237.0,327.0 L242.0,322.0 L243.0,317.0 L248.0,313.0 L248.0,311.0 L250.0,309.0 L251.0,310.0 L250.0,314.0 L251.0,315.0 L253.0,314.0 L255.0,309.0 L253.0,308.0 L251.0,310.0 L250.0,309.0 L251.0,305.0 L254.0,303.0 L261.0,292.0 L260.0,289.0 L261.0,287.0 L268.0,280.0 L268.0,278.0 L275.0,267.0 L276.0,262.0 L279.0,261.0 L281.0,253.0 L286.0,246.0 L287.0,243.0 L286.0,240.0 L291.0,234.0 L291.0,231.0 L294.0,228.0 L294.0,225.0 L298.0,217.0 L299.0,219.0 L298.0,215.0 L300.0,213.0 L301.0,207.0 L303.0,204.0 L303.0,198.0 L307.0,191.0 L307.0,182.0 L309.0,178.0 L309.0,175.0 L312.0,170.0 L312.0,162.0 L313.0,161.0 L312.0,159.0 L314.0,156.0 L314.0,152.0 L315.0,151.0 L318.0,154.0 L318.0,152.0 L315.0,149.0 L316.0,146.0 L316.0,141.0 L315.0,140.0 L315.0,114.0 L314.0,113.0 L315.0,112.0 L315.0,105.0 L313.0,100.0 L313.0,95.0 L311.0,91.0 L311.0,86.0 L309.0,84.0 L309.0,80.0 L307.0,75.0 L305.0,74.0 L305.0,70.0 L303.0,65.0 L300.0,62.0 L299.0,59.0 L297.0,57.0 L296.0,58.0 L293.0,54.0 L289.0,58.0 L287.0,57.0 L287.0,60.0 L285.0,61.0 L287.0,62.0 L286.0,63.0 L289.0,66.0 L290.0,69.0 L293.0,70.0 L293.0,78.0 L296.0,83.0 L296.0,93.0 L297.0,94.0 L296.0,99.0 L298.0,106.0 L298.0,117.0 L299.0,118.0 L299.0,133.0 L296.0,142.0 L296.0,149.0 L294.0,150.0 L295.0,155.0 L293.0,160.0 L293.0,167.0 L290.0,171.0 L287.0,179.0 L288.0,180.0 L287.0,188.0 L284.0,192.0 L284.0,197.0 L282.0,203.0 L278.0,209.0 L277.0,208.0 L278.0,205.0 L277.0,204.0 L278.0,203.0 L277.0,202.0 L276.0,203.0 L277.0,212.0 L275.0,216.0 L275.0,222.0 L270.0,226.0 L270.0,234.0 L266.0,240.0 L264.0,240.0 L264.0,244.0 L260.0,250.0 L258.0,247.0 L257.0,249.0 L258.0,253.0 L255.0,257.0 L254.0,263.0 L253.0,264.0 L251.0,262.0 L249.0,262.0 L249.0,264.0 L252.0,266.0 L249.0,270.0 L247.0,270.0 L249.0,272.0 L246.0,278.0 L244.0,280.0 L239.0,273.0 L239.0,276.0 L243.0,279.0 L243.0,282.0 L241.0,288.0 L236.0,293.0 L235.0,292.0 L236.0,288.0 L234.0,291.0 L232.0,285.0 L232.0,282.0 L236.0,280.0 L236.0,279.0 L232.0,277.0 L232.0,270.0 L233.0,269.0 L234.0,252.0 L237.0,247.0 L234.0,244.0 L236.0,237.0 L236.0,216.0 L237.0,215.0 L237.0,151.0 L238.0,150.0 L238.0,142.0 L237.0,141.0 L237.0,118.0 L235.0,111.0 L232.0,108.0 L232.0,104.0 L230.0,102.0 L217.0,102.0 L215.0,104.0 L212.0,104.0 L210.0,108.0 L205.0,110.0 L201.0,117.0 L199.0,116.0 L199.0,114.0 L199.0,117.0 L198.0,118.0 L196.0,117.0 L198.0,119.0 L195.0,122.0 L193.0,122.0 L193.0,125.0 L191.0,126.0 L189.0,124.0 L191.0,126.0 L189.0,128.0 L188.0,126.0 L189.0,128.0 L188.0,132.0 L185.0,134.0 L183.0,140.0 L179.0,143.0 L177.0,149.0 L174.0,151.0 L171.0,142.0 L172.0,141.0 L169.0,136.0 L169.0,124.0 L166.0,117.0 L167.0,116.0 L166.0,112.0 L162.0,107.0 L163.0,106.0 L160.0,104.0 L160.0,98.0 L155.0,92.0 L154.0,87.0 L149.0,85.0 L147.0,80.0 L140.0,76.0 L141.0,73.0 L139.0,72.0 L140.0,74.0 L139.0,76.0 L135.0,73.0 L132.0,74.0 L131.0,73.0 L132.0,71.0 L134.0,71.0 L130.0,72.0 L128.0,75.0 L122.0,74.0 L118.0,78.0 L113.0,79.0 L108.0,83.0 L108.0,86.0 L103.0,89.0 L102.0,91.0 L99.0,88.0 L98.0,89.0 L98.0,91.0 L101.0,94.0 L100.0,95.0 L99.0,94.0 L98.0,99.0 L95.0,101.0 L96.0,103.0 L94.0,105.0 L94.0,108.0 L87.0,118.0 L87.0,121.0 L85.0,125.0 L85.0,130.0 L83.0,134.0 L80.0,136.0 L80.0,139.0 L78.0,142.0 L78.0,149.0 L72.0,162.0 L72.0,170.0 L70.0,176.0 L70.0,185.0 L68.0,187.0 L69.0,189.0 L68.0,190.0 L67.0,218.0 L66.0,219.0 L68.0,223.0 L68.0,229.0 L70.0,234.0 L69.0,237.0 L72.0,244.0 L71.0,245.0 L73.0,246.0 L74.0,250.0 L81.0,257.0 L83.0,261.0 L86.0,259.0 L89.0,259.0 L91.0,261.0 L92.0,260.0 L93.0,261.0 L105.0,261.0 L108.0,258.0 L112.0,258.0 L113.0,259.0 L112.0,260.0 L113.0,260.0 L112.0,256.0 L110.0,255.0 L112.0,253.0 L111.0,252.0 L106.0,252.0 L102.0,249.0 L100.0,250.0 L99.0,248.0 L98.0,249.0 L96.0,247.0 L97.0,246.0 L94.0,240.0 L94.0,237.0 L91.0,232.0 L91.0,222.0 L92.0,221.0 L93.0,206.0 L95.0,203.0 L93.0,201.0 L98.0,189.0 L99.0,182.0 L101.0,180.0 L103.0,168.0 L105.0,167.0 L104.0,164.0 L106.0,157.0 L110.0,150.0 L113.0,152.0 L115.0,149.0 L114.0,150.0 L111.0,145.0 L113.0,144.0 L113.0,141.0 L118.0,136.0 L121.0,128.0 L125.0,124.0 L128.0,124.0 L130.0,122.0 L134.0,126.0 L136.0,131.0 L135.0,133.0 L137.0,134.0 L137.0,137.0 L141.0,143.0 L142.0,151.0 L141.0,152.0 L140.0,151.0 L140.0,152.0 L143.0,154.0 L143.0,157.0 L144.0,156.0 L146.0,159.0 L146.0,163.0 L148.0,166.0 L148.0,171.0 L151.0,182.0 L151.0,187.0 L153.0,189.0 L153.0,194.0 L155.0,199.0 L155.0,205.0 L158.0,209.0 L163.0,209.0 L164.0,210.0 L174.0,209.0 L178.0,205.0 L177.0,203.0 L180.0,201.0 L180.0,199.0 L185.0,195.0 L187.0,190.0 L194.0,186.0 L195.0,184.0 L194.0,181.0 L197.0,177.0 L200.0,177.0 L206.0,163.0 L207.0,164.0 L208.0,162.0 L210.0,163.0 L210.0,172.0 L209.0,173.0 L210.0,190.0 L208.0,196.0 L207.0,252.0 L206.0,253.0 L203.0,252.0 L204.0,246.0 L203.0,249.0 L198.0,243.0 L196.0,238.0 L195.0,239.0 L194.0,236.0 L186.0,228.0 L184.0,228.0 L180.0,225.0 L169.0,225.0 L168.0,227.0 L162.0,230.0 L155.0,238.0 L153.0,238.0 L154.0,239.0 L150.0,243.0 L150.0,245.0 L146.0,249.0 L139.0,259.0 L137.0,264.0 L134.0,267.0 L133.0,271.0 L128.0,278.0 L119.0,295.0 L112.0,303.0 L107.0,305.0 L98.0,297.0 L91.0,288.0 L91.0,285.0 L87.0,281.0 L85.0,276.0 L83.0,275.0 L83.0,272.0 L80.0,269.0 L77.0,261.0 L75.0,259.0 L75.0,255.0 L68.0,245.0 L68.0,241.0 L66.0,239.0 L67.0,237.0 L63.0,233.0 L61.0,224.0 L58.0,219.0 L58.0,216.0 L55.0,210.0 L55.0,205.0 L53.0,203.0 L53.0,199.0 L49.0,192.0 L49.0,184.0 L50.0,182.0 L49.0,184.0 L46.0,176.0 L46.0,169.0 L44.0,166.0 L44.0,154.0 L43.0,153.0 L43.0,146.0 L42.0,145.0 L43.0,142.0 L42.0,141.0 L41.0,129.0 L43.0,126.0 L42.0,123.0 L43.0,122.0 L43.0,115.0 L44.0,114.0 L44.0,103.0 L46.0,101.0 L47.0,104.0 L46.0,97.0 L49.0,87.0 L52.0,83.0 L53.0,78.0 L59.0,69.0 L69.0,59.0 L81.0,52.0 L88.0,52.0 L89.0,51.0 L106.0,52.0 L109.0,54.0 L117.0,55.0 L120.0,57.0 L125.0,57.0 L130.0,60.0 L135.0,60.0 L136.0,62.0 L141.0,62.0 L144.0,64.0 L149.0,64.0 L158.0,67.0 L177.0,67.0 L179.0,65.0 L182.0,66.0 L190.0,62.0 L193.0,62.0 L194.0,60.0 L199.0,59.0 L206.0,54.0 L209.0,54.0 L208.0,53.0 L209.0,52.0 L211.0,52.0 L223.0,45.0 L228.0,44.0 L234.0,40.0 L238.0,40.0 L242.0,38.0 L255.0,38.0 L258.0,40.0 L271.0,43.0 L273.0,45.0 L278.0,45.0 L279.0,44.0 L275.0,42.0 L276.0,40.0 L275.0,41.0 L272.0,40.0 L268.0,36.0 L267.0,37.0 L264.0,34.0 L254.0,30.0 L253.0,28.0 L249.0,28.0 L247.0,26.0 L242.0,26.0 L239.0,24.0 L216.0,26.0 L213.0,28.0 L209.0,28.0 L207.0,30.0 L200.0,31.0 L189.0,36.0 L185.0,36.0 L176.0,39.0 L156.0,38.0 L148.0,36.0 L142.0,33.0 L132.0,31.0 L129.0,29.0 L121.0,28.0 L119.0,26.0 L114.0,26.0 L109.0,24.0 L104.0,24.0 L103.0,25.0 L101.0,24.0 L90.0,24.0 L84.0,26.0 L79.0,26.0 Z
M300.0,63.0 L304.0,70.0 L306.0,78.0 L308.0,80.0 L308.0,84.0 L312.0,94.0 L313.0,107.0 L314.0,108.0 L314.0,149.0 L312.0,154.0 L312.0,163.0 L308.0,175.0 L306.0,189.0 L302.0,198.0 L301.0,205.0 L298.0,210.0 L297.0,217.0 L293.0,223.0 L292.0,228.0 L286.0,239.0 L286.0,242.0 L282.0,248.0 L282.0,251.0 L275.0,262.0 L274.0,266.0 L268.0,277.0 L261.0,286.0 L260.0,290.0 L255.0,299.0 L245.0,312.0 L235.0,329.0 L231.0,333.0 L227.0,335.0 L221.0,335.0 L220.0,336.0 L219.0,335.0 L215.0,335.0 L212.0,334.0 L209.0,331.0 L206.0,325.0 L206.0,310.0 L207.0,309.0 L207.0,266.0 L206.0,263.0 L208.0,260.0 L208.0,242.0 L210.0,234.0 L210.0,192.0 L211.0,191.0 L211.0,158.0 L210.0,157.0 L206.0,161.0 L205.0,165.0 L203.0,166.0 L200.0,173.0 L195.0,177.0 L193.0,182.0 L191.0,183.0 L190.0,186.0 L183.0,194.0 L183.0,196.0 L180.0,198.0 L176.0,204.0 L170.0,209.0 L163.0,209.0 L157.0,205.0 L156.0,199.0 L154.0,195.0 L153.0,185.0 L150.0,177.0 L149.0,168.0 L147.0,165.0 L146.0,155.0 L144.0,152.0 L141.0,141.0 L137.0,134.0 L137.0,132.0 L131.0,122.0 L127.0,122.0 L123.0,124.0 L114.0,137.0 L112.0,143.0 L107.0,151.0 L104.0,163.0 L101.0,169.0 L101.0,173.0 L97.0,182.0 L96.0,191.0 L93.0,200.0 L93.0,206.0 L91.0,211.0 L91.0,236.0 L94.0,241.0 L94.0,244.0 L98.0,250.0 L101.0,252.0 L106.0,253.0 L109.0,257.0 L102.0,261.0 L94.0,261.0 L84.0,257.0 L76.0,249.0 L71.0,239.0 L69.0,223.0 L68.0,222.0 L68.0,196.0 L69.0,195.0 L71.0,176.0 L73.0,172.0 L73.0,166.0 L75.0,163.0 L76.0,156.0 L79.0,148.0 L79.0,144.0 L81.0,142.0 L83.0,134.0 L87.0,127.0 L89.0,118.0 L91.0,117.0 L94.0,108.0 L99.0,102.0 L99.0,100.0 L103.0,93.0 L109.0,86.0 L121.0,77.0 L132.0,76.0 L133.0,75.0 L140.0,77.0 L146.0,81.0 L148.0,85.0 L150.0,85.0 L152.0,87.0 L159.0,100.0 L160.0,106.0 L164.0,112.0 L164.0,116.0 L166.0,118.0 L167.0,127.0 L169.0,132.0 L169.0,138.0 L172.0,144.0 L173.0,155.0 L177.0,151.0 L180.0,144.0 L185.0,139.0 L186.0,135.0 L195.0,126.0 L205.0,112.0 L210.0,109.0 L213.0,105.0 L220.0,102.0 L225.0,102.0 L231.0,108.0 L233.0,112.0 L233.0,115.0 L236.0,122.0 L236.0,133.0 L237.0,134.0 L237.0,181.0 L236.0,182.0 L236.0,211.0 L235.0,212.0 L235.0,230.0 L234.0,231.0 L235.0,233.0 L234.0,234.0 L233.0,262.0 L232.0,263.0 L232.0,272.0 L231.0,273.0 L232.0,276.0 L231.0,277.0 L231.0,295.0 L229.0,298.0 L230.0,302.0 L233.0,301.0 L240.0,292.0 L243.0,284.0 L249.0,276.0 L249.0,274.0 L255.0,263.0 L259.0,259.0 L259.0,255.0 L261.0,253.0 L263.0,247.0 L265.0,245.0 L265.0,243.0 L271.0,232.0 L271.0,229.0 L275.0,223.0 L277.0,215.0 L279.0,213.0 L280.0,208.0 L283.0,202.0 L283.0,199.0 L286.0,194.0 L286.0,191.0 L289.0,185.0 L289.0,180.0 L294.0,166.0 L297.0,144.0 L299.0,138.0 L299.0,99.0 L297.0,95.0 L298.0,93.0 L297.0,84.0 L294.0,76.0 L293.0,66.0 L291.0,64.0 L291.0,58.0 L292.0,57.0 L295.0,58.0 Z
M482.0,115.0 L482.0,117.0 L485.0,119.0 L485.0,131.0 L484.0,132.0 L485.0,133.0 L485.0,165.0 L486.0,166.0 L485.0,168.0 L486.0,171.0 L484.0,174.0 L485.0,178.0 L485.0,199.0 L484.0,203.0 L485.0,205.0 L490.0,208.0 L504.0,207.0 L508.0,204.0 L507.0,192.0 L509.0,190.0 L515.0,190.0 L516.0,189.0 L530.0,190.0 L533.0,194.0 L532.0,196.0 L531.0,195.0 L531.0,197.0 L532.0,196.0 L534.0,198.0 L532.0,199.0 L533.0,201.0 L535.0,200.0 L541.0,207.0 L546.0,209.0 L548.0,208.0 L563.0,207.0 L565.0,205.0 L568.0,205.0 L574.0,209.0 L577.0,208.0 L581.0,209.0 L590.0,204.0 L592.0,204.0 L593.0,197.0 L597.0,194.0 L603.0,194.0 L604.0,195.0 L619.0,195.0 L620.0,194.0 L621.0,195.0 L622.0,194.0 L623.0,195.0 L624.0,194.0 L625.0,195.0 L626.0,194.0 L630.0,195.0 L631.0,194.0 L636.0,194.0 L637.0,195.0 L636.0,197.0 L637.0,198.0 L637.0,203.0 L638.0,201.0 L639.0,205.0 L641.0,205.0 L642.0,207.0 L665.0,206.0 L669.0,208.0 L685.0,208.0 L686.0,207.0 L690.0,207.0 L691.0,208.0 L707.0,208.0 L708.0,207.0 L718.0,207.0 L723.0,204.0 L726.0,205.0 L724.0,206.0 L725.0,207.0 L728.0,207.0 L727.0,205.0 L728.0,203.0 L731.0,202.0 L738.0,193.0 L739.0,194.0 L739.0,191.0 L745.0,185.0 L745.0,183.0 L743.0,182.0 L743.0,177.0 L744.0,176.0 L744.0,166.0 L743.0,165.0 L744.0,145.0 L743.0,144.0 L743.0,138.0 L739.0,132.0 L740.0,130.0 L736.0,126.0 L736.0,123.0 L732.0,120.0 L730.0,121.0 L729.0,118.0 L725.0,118.0 L723.0,115.0 L715.0,113.0 L691.0,113.0 L690.0,114.0 L689.0,113.0 L688.0,114.0 L687.0,113.0 L686.0,114.0 L685.0,113.0 L684.0,114.0 L683.0,113.0 L682.0,114.0 L679.0,113.0 L678.0,114.0 L675.0,112.0 L670.0,112.0 L666.0,115.0 L662.0,116.0 L664.0,117.0 L662.0,122.0 L663.0,126.0 L662.0,128.0 L664.0,129.0 L665.0,136.0 L663.0,141.0 L664.0,157.0 L662.0,161.0 L661.0,160.0 L662.0,178.0 L664.0,182.0 L664.0,188.0 L662.0,189.0 L661.0,192.0 L659.0,189.0 L659.0,183.0 L658.0,182.0 L657.0,183.0 L655.0,181.0 L655.0,176.0 L649.0,167.0 L648.0,160.0 L646.0,158.0 L643.0,150.0 L644.0,146.0 L641.0,145.0 L641.0,143.0 L635.0,132.0 L635.0,122.0 L633.0,121.0 L634.0,119.0 L631.0,117.0 L629.0,113.0 L626.0,114.0 L622.0,113.0 L604.0,113.0 L601.0,114.0 L601.0,117.0 L597.0,126.0 L596.0,125.0 L597.0,126.0 L595.0,132.0 L593.0,134.0 L593.0,137.0 L591.0,139.0 L590.0,144.0 L588.0,145.0 L589.0,149.0 L585.0,154.0 L584.0,161.0 L583.0,162.0 L581.0,161.0 L582.0,164.0 L580.0,168.0 L579.0,177.0 L578.0,178.0 L577.0,176.0 L576.0,179.0 L574.0,180.0 L575.0,183.0 L572.0,187.0 L573.0,191.0 L569.0,195.0 L569.0,197.0 L566.0,200.0 L565.0,204.0 L564.0,200.0 L562.0,199.0 L563.0,195.0 L562.0,198.0 L560.0,196.0 L561.0,194.0 L556.0,190.0 L554.0,185.0 L555.0,182.0 L554.0,181.0 L556.0,178.0 L558.0,178.0 L558.0,175.0 L563.0,168.0 L564.0,169.0 L562.0,175.0 L565.0,175.0 L566.0,174.0 L565.0,173.0 L567.0,171.0 L566.0,166.0 L563.0,165.0 L565.0,159.0 L565.0,155.0 L566.0,154.0 L567.0,155.0 L567.0,150.0 L565.0,149.0 L564.0,138.0 L561.0,133.0 L559.0,132.0 L560.0,128.0 L562.0,129.0 L563.0,132.0 L562.0,127.0 L561.0,126.0 L559.0,128.0 L552.0,120.0 L546.0,116.0 L537.0,113.0 L531.0,113.0 L530.0,114.0 L527.0,113.0 L526.0,114.0 L525.0,113.0 L523.0,114.0 L505.0,113.0 L501.0,114.0 L496.0,112.0 L495.0,113.0 L489.0,113.0 L484.0,116.0 L483.0,114.0 Z
M568.0,203.0 L569.0,198.0 L574.0,190.0 L575.0,183.0 L578.0,180.0 L579.0,174.0 L585.0,161.0 L587.0,153.0 L590.0,148.0 L590.0,145.0 L596.0,134.0 L601.0,118.0 L606.0,114.0 L610.0,113.0 L612.0,114.0 L619.0,114.0 L624.0,118.0 L627.0,117.0 L633.0,124.0 L634.0,130.0 L637.0,139.0 L643.0,151.0 L644.0,157.0 L648.0,163.0 L648.0,166.0 L653.0,175.0 L654.0,181.0 L658.0,188.0 L654.0,193.0 L658.0,194.0 L660.0,197.0 L664.0,197.0 L664.0,140.0 L666.0,136.0 L664.0,130.0 L664.0,120.0 L667.0,115.0 L669.0,114.0 L714.0,114.0 L718.0,116.0 L722.0,116.0 L735.0,126.0 L738.0,133.0 L741.0,135.0 L743.0,143.0 L743.0,179.0 L741.0,182.0 L740.0,187.0 L736.0,191.0 L734.0,196.0 L727.0,202.0 L722.0,204.0 L719.0,204.0 L712.0,207.0 L669.0,207.0 L663.0,203.0 L662.0,205.0 L658.0,207.0 L645.0,207.0 L639.0,200.0 L639.0,194.0 L637.0,193.0 L628.0,193.0 L627.0,194.0 L626.0,193.0 L625.0,194.0 L624.0,193.0 L623.0,194.0 L622.0,193.0 L621.0,194.0 L620.0,193.0 L619.0,194.0 L618.0,193.0 L617.0,194.0 L616.0,193.0 L615.0,194.0 L614.0,193.0 L613.0,194.0 L612.0,193.0 L611.0,194.0 L610.0,193.0 L609.0,194.0 L608.0,193.0 L607.0,194.0 L606.0,193.0 L605.0,194.0 L604.0,193.0 L603.0,194.0 L594.0,194.0 L592.0,196.0 L591.0,201.0 L586.0,206.0 L581.0,208.0 L579.0,207.0 L576.0,208.0 L572.0,207.0 Z
M488.0,115.0 L491.0,114.0 L536.0,114.0 L551.0,121.0 L557.0,127.0 L558.0,131.0 L561.0,134.0 L564.0,142.0 L564.0,149.0 L565.0,150.0 L564.0,160.0 L556.0,177.0 L552.0,181.0 L548.0,183.0 L550.0,183.0 L560.0,197.0 L562.0,202.0 L561.0,206.0 L558.0,207.0 L544.0,207.0 L542.0,206.0 L537.0,201.0 L534.0,195.0 L534.0,190.0 L535.0,189.0 L529.0,189.0 L528.0,188.0 L508.0,189.0 L506.0,192.0 L507.0,201.0 L501.0,207.0 L490.0,207.0 L486.0,204.0 L485.0,201.0 L485.0,193.0 L486.0,192.0 L485.0,174.0 L488.0,168.0 L486.0,165.0 L486.0,152.0 L485.0,151.0 L486.0,149.0 L486.0,135.0 L485.0,134.0 L485.0,129.0 L486.0,128.0 L486.0,117.0 Z
M833.0,112.0 L834.0,116.0 L831.0,118.0 L835.0,123.0 L835.0,128.0 L831.0,131.0 L831.0,136.0 L832.0,137.0 L832.0,175.0 L833.0,176.0 L833.0,182.0 L832.0,183.0 L832.0,189.0 L833.0,190.0 L832.0,205.0 L833.0,207.0 L835.0,208.0 L836.0,207.0 L849.0,208.0 L853.0,207.0 L857.0,203.0 L857.0,198.0 L855.0,197.0 L855.0,190.0 L857.0,189.0 L857.0,186.0 L855.0,181.0 L855.0,160.0 L854.0,159.0 L854.0,157.0 L856.0,155.0 L860.0,159.0 L862.0,164.0 L867.0,167.0 L867.0,169.0 L864.0,172.0 L865.0,173.0 L867.0,169.0 L870.0,172.0 L870.0,174.0 L873.0,175.0 L873.0,178.0 L877.0,179.0 L882.0,192.0 L884.0,192.0 L890.0,198.0 L890.0,201.0 L892.0,204.0 L898.0,208.0 L902.0,208.0 L903.0,207.0 L905.0,208.0 L915.0,208.0 L919.0,205.0 L919.0,141.0 L918.0,140.0 L918.0,122.0 L919.0,118.0 L918.0,117.0 L920.0,115.0 L919.0,114.0 L918.0,117.0 L915.0,113.0 L911.0,113.0 L910.0,112.0 L900.0,113.0 L896.0,117.0 L895.0,115.0 L893.0,115.0 L895.0,122.0 L895.0,132.0 L896.0,133.0 L896.0,151.0 L895.0,152.0 L896.0,153.0 L895.0,155.0 L896.0,165.0 L893.0,166.0 L891.0,164.0 L889.0,156.0 L887.0,155.0 L889.0,153.0 L886.0,154.0 L881.0,149.0 L882.0,142.0 L881.0,142.0 L882.0,143.0 L881.0,146.0 L873.0,140.0 L874.0,139.0 L871.0,137.0 L872.0,133.0 L871.0,131.0 L870.0,132.0 L869.0,131.0 L870.0,129.0 L868.0,127.0 L866.0,128.0 L862.0,124.0 L863.0,122.0 L861.0,122.0 L859.0,120.0 L861.0,118.0 L858.0,116.0 L858.0,114.0 L856.0,114.0 L854.0,112.0 L852.0,113.0 L843.0,112.0 L835.0,114.0 Z
M754.0,114.0 L752.0,118.0 L753.0,169.0 L754.0,170.0 L754.0,174.0 L752.0,180.0 L753.0,196.0 L751.0,199.0 L753.0,205.0 L756.0,207.0 L759.0,207.0 L761.0,209.0 L772.0,208.0 L773.0,207.0 L814.0,208.0 L816.0,209.0 L817.0,207.0 L818.0,208.0 L823.0,207.0 L825.0,205.0 L825.0,190.0 L820.0,185.0 L819.0,186.0 L806.0,186.0 L805.0,185.0 L784.0,185.0 L783.0,186.0 L779.0,186.0 L776.0,183.0 L776.0,176.0 L774.0,173.0 L777.0,171.0 L780.0,172.0 L810.0,172.0 L811.0,173.0 L812.0,172.0 L813.0,173.0 L815.0,171.0 L817.0,172.0 L818.0,169.0 L819.0,172.0 L822.0,165.0 L822.0,161.0 L819.0,153.0 L814.0,150.0 L778.0,150.0 L776.0,148.0 L777.0,144.0 L775.0,140.0 L777.0,136.0 L784.0,136.0 L785.0,135.0 L804.0,135.0 L805.0,136.0 L815.0,136.0 L818.0,137.0 L824.0,133.0 L825.0,118.0 L826.0,116.0 L823.0,112.0 L820.0,113.0 L819.0,112.0 L818.0,113.0 L804.0,113.0 L803.0,114.0 L772.0,114.0 L764.0,112.0 L763.0,113.0 L759.0,113.0 L758.0,114.0 L756.0,113.0 Z
M914.0,114.0 L917.0,117.0 L917.0,125.0 L918.0,126.0 L917.0,127.0 L918.0,128.0 L918.0,134.0 L917.0,135.0 L918.0,197.0 L916.0,205.0 L911.0,207.0 L897.0,206.0 L893.0,202.0 L887.0,192.0 L883.0,189.0 L877.0,178.0 L871.0,172.0 L866.0,164.0 L861.0,159.0 L860.0,156.0 L854.0,151.0 L854.0,165.0 L853.0,166.0 L854.0,201.0 L853.0,204.0 L850.0,207.0 L839.0,207.0 L836.0,206.0 L833.0,201.0 L833.0,183.0 L834.0,182.0 L834.0,175.0 L833.0,174.0 L833.0,170.0 L834.0,169.0 L833.0,165.0 L833.0,149.0 L834.0,148.0 L833.0,134.0 L835.0,129.0 L837.0,127.0 L838.0,128.0 L835.0,124.0 L834.0,117.0 L837.0,114.0 L852.0,114.0 L854.0,115.0 L864.0,129.0 L869.0,134.0 L871.0,139.0 L878.0,146.0 L884.0,156.0 L889.0,160.0 L891.0,165.0 L894.0,168.0 L896.0,168.0 L897.0,167.0 L897.0,125.0 L896.0,124.0 L896.0,119.0 L901.0,114.0 L908.0,114.0 L909.0,113.0 L910.0,114.0 Z
M757.0,114.0 L820.0,114.0 L824.0,118.0 L825.0,124.0 L823.0,132.0 L821.0,134.0 L813.0,135.0 L812.0,134.0 L778.0,134.0 L774.0,138.0 L774.0,142.0 L775.0,143.0 L774.0,149.0 L778.0,151.0 L779.0,150.0 L780.0,151.0 L782.0,150.0 L785.0,151.0 L802.0,151.0 L806.0,150.0 L807.0,151.0 L814.0,151.0 L818.0,154.0 L820.0,160.0 L819.0,167.0 L814.0,171.0 L778.0,171.0 L777.0,170.0 L773.0,171.0 L773.0,174.0 L775.0,177.0 L774.0,181.0 L776.0,186.0 L821.0,187.0 L823.0,189.0 L824.0,193.0 L824.0,203.0 L822.0,206.0 L819.0,207.0 L771.0,207.0 L770.0,208.0 L769.0,207.0 L759.0,207.0 L755.0,204.0 L754.0,202.0 L754.0,182.0 L753.0,179.0 L756.0,170.0 L754.0,168.0 L754.0,151.0 L753.0,148.0 L754.0,147.0 L754.0,118.0 Z
M926.0,113.0 L923.0,121.0 L923.0,125.0 L925.0,130.0 L926.0,129.0 L927.0,132.0 L932.0,136.0 L941.0,136.0 L946.0,134.0 L948.0,135.0 L948.0,142.0 L947.0,143.0 L948.0,144.0 L948.0,173.0 L949.0,174.0 L949.0,187.0 L948.0,189.0 L949.0,190.0 L949.0,197.0 L944.0,199.0 L948.0,203.0 L948.0,206.0 L949.0,204.0 L953.0,208.0 L958.0,208.0 L959.0,207.0 L962.0,209.0 L966.0,209.0 L970.0,205.0 L970.0,136.0 L972.0,134.0 L974.0,136.0 L973.0,138.0 L975.0,138.0 L979.0,134.0 L982.0,137.0 L989.0,139.0 L987.0,137.0 L990.0,136.0 L994.0,131.0 L995.0,115.0 L993.0,115.0 L988.0,112.0 L983.0,112.0 L982.0,113.0 L963.0,113.0 L962.0,114.0 L961.0,113.0 L960.0,114.0 L959.0,113.0 L958.0,114.0 L957.0,113.0 L956.0,114.0 L955.0,113.0 L954.0,114.0 L953.0,113.0 L950.0,114.0 L949.0,113.0 L932.0,113.0 L931.0,112.0 Z
M931.0,114.0 L989.0,114.0 L993.0,117.0 L993.0,125.0 L992.0,126.0 L993.0,130.0 L990.0,134.0 L968.0,134.0 L967.0,135.0 L969.0,139.0 L969.0,203.0 L965.0,208.0 L953.0,207.0 L949.0,203.0 L949.0,142.0 L948.0,138.0 L950.0,135.0 L949.0,134.0 L934.0,134.0 L933.0,135.0 L928.0,132.0 L926.0,124.0 L927.0,123.0 L927.0,117.0 Z
M460.0,110.0 L459.0,113.0 L455.0,113.0 L454.0,114.0 L452.0,113.0 L450.0,119.0 L446.0,118.0 L447.0,122.0 L449.0,123.0 L447.0,125.0 L448.0,126.0 L448.0,133.0 L449.0,134.0 L448.0,181.0 L450.0,188.0 L448.0,192.0 L447.0,201.0 L448.0,203.0 L451.0,204.0 L452.0,207.0 L456.0,209.0 L467.0,209.0 L472.0,205.0 L472.0,201.0 L473.0,200.0 L473.0,190.0 L472.0,189.0 L472.0,133.0 L473.0,132.0 L472.0,131.0 L472.0,125.0 L473.0,124.0 L473.0,117.0 L471.0,116.0 L471.0,114.0 L461.0,112.0 Z
M683.0,134.0 L684.0,137.0 L684.0,183.0 L685.0,185.0 L690.0,187.0 L714.0,185.0 L720.0,180.0 L723.0,173.0 L723.0,149.0 L719.0,141.0 L713.0,136.0 L707.0,134.0 Z
M455.0,114.0 L467.0,114.0 L472.0,119.0 L471.0,122.0 L471.0,198.0 L472.0,199.0 L470.0,204.0 L467.0,207.0 L464.0,208.0 L458.0,208.0 L453.0,206.0 L451.0,204.0 L451.0,198.0 L450.0,197.0 L450.0,193.0 L451.0,192.0 L451.0,183.0 L450.0,182.0 L451.0,117.0 Z
M688.0,134.0 L695.0,136.0 L696.0,138.0 L704.0,136.0 L709.0,136.0 L718.0,141.0 L719.0,146.0 L721.0,148.0 L720.0,149.0 L721.0,150.0 L719.0,152.0 L722.0,154.0 L722.0,162.0 L723.0,164.0 L722.0,165.0 L721.0,174.0 L713.0,184.0 L710.0,185.0 L708.0,183.0 L707.0,185.0 L689.0,186.0 L685.0,181.0 L685.0,151.0 L686.0,150.0 L685.0,142.0 L688.0,138.0 L687.0,136.0 Z
M507.0,135.0 L506.0,137.0 L506.0,142.0 L507.0,143.0 L506.0,147.0 L506.0,163.0 L504.0,167.0 L505.0,168.0 L532.0,168.0 L539.0,165.0 L544.0,156.0 L544.0,146.0 L537.0,136.0 L532.0,134.0 Z
M508.0,138.0 L513.0,137.0 L516.0,135.0 L532.0,136.0 L536.0,141.0 L538.0,140.0 L542.0,144.0 L543.0,153.0 L544.0,154.0 L541.0,159.0 L534.0,166.0 L531.0,167.0 L529.0,166.0 L527.0,167.0 L516.0,167.0 L515.0,168.0 L508.0,167.0 L506.0,165.0 L506.0,161.0 L508.0,157.0 L507.0,149.0 L509.0,145.0 L509.0,143.0 L507.0,141.0 Z
M334.0,117.0 L335.0,120.0 L340.0,124.0 L340.0,126.0 L338.0,128.0 L338.0,131.0 L336.0,133.0 L335.0,132.0 L336.0,134.0 L336.0,141.0 L335.0,142.0 L336.0,143.0 L336.0,157.0 L337.0,158.0 L337.0,182.0 L338.0,183.0 L336.0,184.0 L336.0,194.0 L335.0,197.0 L333.0,198.0 L333.0,200.0 L335.0,199.0 L338.0,202.0 L340.0,207.0 L346.0,210.0 L347.0,209.0 L355.0,209.0 L357.0,208.0 L358.0,204.0 L360.0,202.0 L359.0,166.0 L361.0,160.0 L362.0,161.0 L362.0,173.0 L362.0,162.0 L363.0,161.0 L366.0,165.0 L364.0,167.0 L366.0,166.0 L370.0,170.0 L369.0,171.0 L378.0,182.0 L379.0,189.0 L382.0,190.0 L379.0,192.0 L378.0,191.0 L379.0,193.0 L380.0,192.0 L384.0,192.0 L386.0,194.0 L395.0,187.0 L395.0,185.0 L398.0,183.0 L400.0,179.0 L399.0,177.0 L401.0,173.0 L405.0,171.0 L405.0,168.0 L407.0,165.0 L409.0,164.0 L411.0,165.0 L411.0,162.0 L413.0,159.0 L415.0,161.0 L415.0,165.0 L416.0,165.0 L416.0,161.0 L415.0,160.0 L416.0,159.0 L416.0,155.0 L415.0,153.0 L413.0,155.0 L412.0,159.0 L405.0,166.0 L404.0,169.0 L398.0,174.0 L399.0,175.0 L398.0,180.0 L394.0,184.0 L394.0,186.0 L387.0,191.0 L384.0,190.0 L381.0,187.0 L381.0,185.0 L377.0,178.0 L370.0,170.0 L369.0,166.0 L366.0,164.0 L361.0,155.0 L358.0,154.0 L357.0,155.0 L359.0,160.0 L359.0,173.0 L358.0,174.0 L359.0,198.0 L358.0,202.0 L355.0,207.0 L345.0,208.0 L341.0,206.0 L339.0,204.0 L338.0,200.0 L338.0,139.0 L337.0,135.0 L339.0,133.0 L339.0,130.0 L342.0,128.0 L342.0,126.0 L338.0,120.0 L339.0,116.0 L346.0,113.0 L348.0,114.0 L350.0,113.0 L358.0,114.0 L363.0,119.0 L363.0,121.0 L368.0,128.0 L370.0,133.0 L376.0,140.0 L377.0,143.0 L383.0,149.0 L384.0,153.0 L388.0,157.0 L396.0,142.0 L402.0,136.0 L410.0,121.0 L414.0,116.0 L420.0,114.0 L427.0,114.0 L428.0,113.0 L435.0,115.0 L436.0,116.0 L435.0,118.0 L436.0,121.0 L436.0,133.0 L435.0,134.0 L435.0,194.0 L436.0,198.0 L435.0,199.0 L435.0,203.0 L433.0,206.0 L428.0,208.0 L419.0,207.0 L416.0,204.0 L415.0,200.0 L415.0,182.0 L416.0,180.0 L415.0,181.0 L415.0,203.0 L414.0,204.0 L417.0,208.0 L421.0,209.0 L433.0,208.0 L435.0,204.0 L436.0,205.0 L435.0,203.0 L436.0,198.0 L437.0,197.0 L440.0,198.0 L442.0,197.0 L442.0,195.0 L441.0,194.0 L437.0,195.0 L435.0,192.0 L436.0,190.0 L435.0,189.0 L435.0,183.0 L436.0,182.0 L435.0,135.0 L436.0,134.0 L436.0,125.0 L438.0,123.0 L439.0,125.0 L439.0,123.0 L437.0,122.0 L438.0,119.0 L436.0,118.0 L435.0,113.0 L434.0,114.0 L427.0,112.0 L425.0,113.0 L415.0,113.0 L411.0,116.0 L410.0,120.0 L407.0,122.0 L408.0,123.0 L406.0,125.0 L404.0,124.0 L404.0,121.0 L404.0,125.0 L406.0,126.0 L404.0,129.0 L404.0,132.0 L400.0,136.0 L397.0,137.0 L396.0,141.0 L393.0,143.0 L393.0,145.0 L391.0,147.0 L391.0,150.0 L389.0,154.0 L387.0,154.0 L383.0,149.0 L384.0,148.0 L384.0,144.0 L385.0,143.0 L387.0,144.0 L387.0,140.0 L384.0,140.0 L381.0,143.0 L377.0,141.0 L376.0,136.0 L374.0,133.0 L371.0,132.0 L371.0,129.0 L373.0,126.0 L371.0,128.0 L366.0,124.0 L362.0,117.0 L362.0,114.0 L359.0,112.0 L349.0,112.0 L348.0,111.0 L349.0,110.0 L348.0,110.0 L347.0,112.0 L345.0,111.0 L341.0,114.0 L340.0,113.0 L336.0,118.0 Z
M820.0,215.0 L816.0,220.0 L817.0,221.0 L812.0,223.0 L808.0,227.0 L806.0,232.0 L807.0,234.0 L806.0,238.0 L807.0,241.0 L810.0,244.0 L809.0,245.0 L817.0,248.0 L824.0,248.0 L827.0,246.0 L828.0,247.0 L832.0,242.0 L834.0,237.0 L834.0,233.0 L832.0,231.0 L832.0,227.0 L825.0,221.0 L824.0,222.0 L823.0,221.0 L824.0,219.0 L827.0,219.0 L826.0,218.0 L828.0,216.0 L827.0,215.0 Z
M747.0,222.0 L748.0,224.0 L743.0,232.0 L743.0,237.0 L746.0,243.0 L744.0,245.0 L747.0,244.0 L750.0,247.0 L753.0,248.0 L761.0,248.0 L766.0,246.0 L771.0,238.0 L771.0,230.0 L766.0,224.0 L764.0,224.0 L763.0,222.0 L751.0,222.0 L750.0,223.0 Z
M927.0,225.0 L925.0,230.0 L925.0,240.0 L929.0,246.0 L934.0,248.0 L942.0,248.0 L946.0,247.0 L950.0,243.0 L951.0,245.0 L950.0,242.0 L953.0,238.0 L952.0,237.0 L952.0,230.0 L949.0,227.0 L949.0,225.0 L943.0,222.0 L932.0,222.0 Z
M525.0,226.0 L523.0,230.0 L522.0,236.0 L523.0,240.0 L527.0,246.0 L532.0,248.0 L540.0,248.0 L543.0,247.0 L546.0,244.0 L548.0,245.0 L547.0,243.0 L549.0,241.0 L551.0,235.0 L549.0,229.0 L545.0,224.0 L546.0,223.0 L544.0,224.0 L542.0,222.0 L530.0,222.0 Z
M578.0,225.0 L575.0,231.0 L576.0,242.0 L580.0,246.0 L585.0,248.0 L593.0,248.0 L595.0,246.0 L598.0,246.0 L597.0,245.0 L601.0,241.0 L601.0,238.0 L602.0,237.0 L603.0,238.0 L603.0,234.0 L601.0,231.0 L601.0,228.0 L595.0,222.0 L582.0,222.0 Z
M653.0,222.0 L646.0,229.0 L645.0,236.0 L647.0,242.0 L655.0,248.0 L666.0,247.0 L672.0,241.0 L673.0,237.0 L672.0,229.0 L666.0,222.0 Z
M612.0,223.0 L613.0,224.0 L612.0,226.0 L613.0,227.0 L612.0,228.0 L613.0,229.0 L612.0,232.0 L613.0,236.0 L612.0,239.0 L613.0,241.0 L612.0,244.0 L613.0,245.0 L612.0,246.0 L613.0,248.0 L629.0,247.0 L636.0,242.0 L637.0,240.0 L637.0,231.0 L636.0,230.0 L637.0,229.0 L634.0,225.0 L628.0,222.0 L613.0,222.0 Z
M493.0,222.0 L492.0,223.0 L493.0,226.0 L492.0,227.0 L492.0,245.0 L493.0,248.0 L498.0,248.0 L499.0,246.0 L498.0,245.0 L500.0,244.0 L499.0,243.0 L500.0,241.0 L502.0,241.0 L509.0,248.0 L515.0,247.0 L512.0,243.0 L512.0,241.0 L510.0,240.0 L515.0,232.0 L515.0,229.0 L513.0,226.0 L508.0,222.0 Z
M683.0,222.0 L682.0,224.0 L683.0,227.0 L683.0,247.0 L684.0,248.0 L689.0,248.0 L693.0,244.0 L693.0,243.0 L691.0,244.0 L690.0,246.0 L689.0,245.0 L689.0,242.0 L691.0,240.0 L690.0,238.0 L692.0,237.0 L698.0,246.0 L701.0,248.0 L705.0,248.0 L706.0,247.0 L706.0,229.0 L707.0,228.0 L708.0,229.0 L706.0,227.0 L706.0,223.0 L705.0,222.0 L700.0,222.0 L699.0,223.0 L699.0,231.0 L697.0,232.0 L690.0,223.0 Z
M429.0,223.0 L430.0,224.0 L429.0,225.0 L430.0,227.0 L430.0,234.0 L429.0,235.0 L430.0,237.0 L430.0,247.0 L431.0,248.0 L437.0,247.0 L437.0,238.0 L438.0,237.0 L444.0,243.0 L446.0,247.0 L452.0,248.0 L453.0,247.0 L453.0,225.0 L454.0,223.0 L452.0,222.0 L447.0,222.0 L446.0,223.0 L446.0,232.0 L445.0,233.0 L442.0,231.0 L442.0,229.0 L439.0,227.0 L436.0,222.0 Z
M400.0,222.0 L400.0,247.0 L401.0,248.0 L419.0,248.0 L421.0,246.0 L419.0,241.0 L409.0,241.0 L408.0,240.0 L409.0,237.0 L411.0,238.0 L412.0,237.0 L416.0,238.0 L418.0,236.0 L419.0,237.0 L418.0,233.0 L417.0,232.0 L408.0,232.0 L407.0,231.0 L408.0,228.0 L412.0,227.0 L418.0,229.0 L419.0,223.0 L418.0,222.0 Z
M845.0,225.0 L842.0,229.0 L842.0,237.0 L841.0,238.0 L844.0,243.0 L851.0,248.0 L859.0,248.0 L866.0,245.0 L866.0,234.0 L859.0,234.0 L859.0,240.0 L857.0,242.0 L850.0,239.0 L849.0,232.0 L851.0,229.0 L853.0,230.0 L854.0,228.0 L858.0,228.0 L863.0,230.0 L865.0,229.0 L866.0,225.0 L862.0,222.0 L849.0,222.0 Z
M892.0,226.0 L893.0,238.0 L895.0,243.0 L898.0,246.0 L903.0,248.0 L910.0,248.0 L917.0,244.0 L915.0,239.0 L910.0,241.0 L905.0,241.0 L901.0,238.0 L903.0,237.0 L900.0,235.0 L900.0,233.0 L903.0,229.0 L909.0,228.0 L913.0,230.0 L917.0,228.0 L917.0,225.0 L912.0,222.0 L901.0,222.0 L898.0,223.0 L897.0,225.0 L895.0,224.0 L896.0,227.0 L893.0,229.0 Z
M373.0,222.0 L368.0,227.0 L368.0,230.0 L366.0,232.0 L366.0,237.0 L365.0,238.0 L366.0,237.0 L369.0,244.0 L376.0,248.0 L384.0,248.0 L389.0,246.0 L390.0,242.0 L387.0,238.0 L385.0,240.0 L378.0,241.0 L374.0,238.0 L375.0,237.0 L374.0,238.0 L373.0,237.0 L373.0,232.0 L376.0,229.0 L378.0,229.0 L379.0,227.0 L387.0,230.0 L390.0,228.0 L390.0,225.0 L386.0,222.0 Z
M714.0,222.0 L714.0,227.0 L722.0,229.0 L722.0,247.0 L723.0,248.0 L728.0,248.0 L729.0,247.0 L729.0,231.0 L730.0,230.0 L729.0,229.0 L732.0,227.0 L735.0,228.0 L737.0,226.0 L736.0,224.0 L738.0,223.0 L736.0,222.0 Z
M780.0,223.0 L780.0,246.0 L782.0,248.0 L798.0,248.0 L800.0,246.0 L800.0,243.0 L798.0,241.0 L791.0,241.0 L790.0,242.0 L787.0,240.0 L787.0,222.0 Z
M463.0,222.0 L462.0,223.0 L462.0,227.0 L463.0,228.0 L467.0,227.0 L469.0,229.0 L469.0,247.0 L470.0,248.0 L475.0,248.0 L476.0,247.0 L476.0,230.0 L478.0,227.0 L479.0,228.0 L483.0,227.0 L483.0,222.0 Z
M878.0,222.0 L876.0,227.0 L877.0,230.0 L877.0,236.0 L876.0,237.0 L877.0,243.0 L876.0,246.0 L878.0,248.0 L882.0,248.0 L884.0,245.0 L883.0,222.0 Z
M657.0,228.0 L660.0,227.0 L662.0,230.0 L664.0,229.0 L667.0,234.0 L663.0,241.0 L656.0,241.0 L652.0,235.0 L653.0,232.0 Z
M586.0,228.0 L593.0,229.0 L596.0,234.0 L592.0,241.0 L588.0,242.0 L584.0,240.0 L582.0,237.0 L582.0,233.0 Z
M934.0,229.0 L941.0,228.0 L944.0,231.0 L945.0,237.0 L941.0,241.0 L935.0,241.0 L933.0,239.0 L932.0,233.0 Z
M535.0,228.0 L537.0,228.0 L539.0,230.0 L541.0,229.0 L543.0,232.0 L543.0,237.0 L539.0,241.0 L534.0,241.0 L530.0,238.0 L529.0,235.0 L530.0,232.0 Z
M819.0,228.0 L821.0,228.0 L822.0,230.0 L824.0,229.0 L826.0,233.0 L826.0,238.0 L823.0,241.0 L818.0,242.0 L814.0,238.0 L813.0,235.0 L814.0,231.0 Z
M757.0,228.0 L762.0,230.0 L764.0,236.0 L760.0,237.0 L763.0,238.0 L761.0,240.0 L758.0,241.0 L755.0,240.0 L754.0,241.0 L752.0,239.0 L752.0,237.0 L751.0,238.0 L750.0,237.0 L750.0,233.0 L753.0,229.0 L756.0,230.0 Z
M618.0,229.0 L619.0,228.0 L628.0,229.0 L629.0,230.0 L628.0,232.0 L630.0,233.0 L629.0,239.0 L626.0,241.0 L620.0,241.0 L619.0,240.0 L619.0,231.0 Z
M616.0,140.0 L614.0,141.0 L612.0,145.0 L611.0,151.0 L604.0,167.0 L604.0,172.0 L605.0,173.0 L626.0,173.0 L627.0,171.0 L626.0,172.0 L608.0,172.0 L606.0,170.0 L606.0,167.0 L609.0,165.0 L607.0,163.0 L607.0,161.0 L609.0,159.0 L609.0,157.0 L612.0,155.0 L611.0,151.0 L613.0,149.0 L612.0,148.0 L613.0,145.0 L615.0,146.0 L616.0,145.0 L621.0,152.0 L620.0,156.0 L622.0,160.0 L621.0,165.0 L623.0,164.0 L624.0,167.0 L626.0,166.0 L628.0,169.0 L627.0,166.0 L624.0,164.0 L621.0,150.0 L619.0,148.0 Z
M498.0,233.0 L500.0,231.0 L499.0,229.0 L500.0,228.0 L504.0,228.0 L507.0,231.0 L504.0,235.0 L500.0,235.0 Z
M232.0,287.0 L234.0,291.0 L233.0,292.0 L236.0,293.0 L236.0,296.0 L235.0,297.0 L234.0,295.0 L233.0,299.0 L231.0,293.0 L231.0,288.0 Z
M568.0,184.0 L566.0,186.0 L564.0,186.0 L563.0,191.0 L565.0,191.0 L569.0,188.0 Z
M467.0,104.0 L460.0,105.0 L459.0,107.0 L460.0,108.0 L466.0,107.0 Z
M611.0,105.0 L611.0,107.0 L616.0,106.0 L615.0,105.0 Z
M581.0,149.0 L580.0,150.0 L580.0,155.0 L582.0,153.0 Z
M890.0,119.0 L890.0,125.0 L892.0,125.0 L891.0,124.0 L891.0,119.0 Z
M318.0,86.0 L318.0,91.0 L319.0,91.0 L320.0,87.0 Z
M235.0,246.0 L236.0,247.0 L235.0,250.0 L234.0,249.0 Z
M260.0,236.0 L261.0,240.0 L262.0,238.0 Z
M205.0,179.0 L204.0,180.0 L203.0,177.0 L201.0,181.0 L203.0,180.0 L205.0,181.0 Z
M136.0,150.0 L135.0,151.0 L137.0,152.0 L138.0,151.0 Z
M115.0,142.0 L116.0,145.0 L118.0,144.0 Z
M642.0,130.0 L641.0,135.0 L643.0,138.0 Z
M438.0,197.0 L439.0,196.0 L441.0,197.0 L440.0,198.0 Z
M653.0,162.0 L653.0,164.0 L655.0,164.0 Z
M540.0,110.0 L541.0,109.0 L547.0,110.0 L545.0,108.0 L544.0,109.0 L541.0,108.0 Z"/>
    <path fill="#009CA1" d="M299.0,63.0 L295.0,59.0 L292.0,58.0 L292.0,64.0 L294.0,66.0 L295.0,76.0 L298.0,84.0 L298.0,90.0 L299.0,91.0 L298.0,95.0 L300.0,99.0 L300.0,138.0 L298.0,144.0 L295.0,166.0 L290.0,180.0 L290.0,185.0 L288.0,188.0 L287.0,194.0 L284.0,199.0 L284.0,202.0 L281.0,208.0 L280.0,213.0 L278.0,215.0 L276.0,223.0 L272.0,229.0 L272.0,232.0 L266.0,243.0 L266.0,245.0 L264.0,247.0 L262.0,253.0 L260.0,255.0 L260.0,259.0 L256.0,263.0 L250.0,274.0 L250.0,276.0 L244.0,284.0 L241.0,292.0 L233.0,302.0 L230.0,303.0 L228.0,301.0 L228.0,298.0 L230.0,295.0 L230.0,277.0 L231.0,276.0 L230.0,273.0 L231.0,272.0 L232.0,245.0 L233.0,244.0 L233.0,234.0 L234.0,233.0 L233.0,231.0 L234.0,230.0 L235.0,182.0 L236.0,181.0 L236.0,134.0 L235.0,133.0 L235.0,122.0 L232.0,115.0 L232.0,112.0 L230.0,108.0 L225.0,103.0 L220.0,103.0 L215.0,105.0 L210.0,110.0 L206.0,112.0 L196.0,126.0 L187.0,135.0 L186.0,139.0 L181.0,144.0 L178.0,151.0 L173.0,156.0 L171.0,152.0 L171.0,144.0 L168.0,138.0 L168.0,132.0 L166.0,127.0 L165.0,118.0 L163.0,116.0 L163.0,112.0 L159.0,106.0 L158.0,100.0 L151.0,87.0 L148.0,86.0 L146.0,82.0 L140.0,78.0 L133.0,76.0 L132.0,77.0 L121.0,78.0 L109.0,87.0 L104.0,93.0 L100.0,100.0 L100.0,102.0 L95.0,108.0 L92.0,117.0 L90.0,118.0 L88.0,127.0 L84.0,134.0 L82.0,142.0 L80.0,144.0 L80.0,148.0 L77.0,156.0 L76.0,163.0 L74.0,166.0 L74.0,172.0 L72.0,176.0 L70.0,195.0 L69.0,196.0 L69.0,222.0 L70.0,223.0 L72.0,239.0 L77.0,249.0 L84.0,256.0 L90.0,259.0 L102.0,260.0 L108.0,257.0 L106.0,254.0 L101.0,253.0 L98.0,251.0 L93.0,244.0 L93.0,241.0 L90.0,236.0 L90.0,211.0 L92.0,206.0 L92.0,200.0 L95.0,191.0 L96.0,182.0 L100.0,173.0 L100.0,169.0 L103.0,163.0 L106.0,151.0 L109.0,147.0 L113.0,137.0 L123.0,123.0 L127.0,121.0 L131.0,121.0 L138.0,132.0 L138.0,134.0 L142.0,141.0 L145.0,152.0 L147.0,155.0 L148.0,165.0 L150.0,168.0 L151.0,177.0 L154.0,185.0 L154.0,190.0 L158.0,205.0 L163.0,208.0 L170.0,208.0 L175.0,204.0 L179.0,198.0 L182.0,196.0 L182.0,194.0 L189.0,186.0 L190.0,183.0 L192.0,182.0 L194.0,177.0 L199.0,173.0 L202.0,166.0 L204.0,165.0 L205.0,161.0 L210.0,156.0 L212.0,158.0 L212.0,191.0 L211.0,192.0 L211.0,234.0 L209.0,242.0 L209.0,260.0 L207.0,263.0 L208.0,266.0 L207.0,325.0 L210.0,331.0 L215.0,334.0 L219.0,334.0 L220.0,335.0 L221.0,334.0 L227.0,334.0 L231.0,332.0 L234.0,329.0 L244.0,312.0 L254.0,299.0 L259.0,290.0 L260.0,286.0 L267.0,277.0 L273.0,266.0 L274.0,262.0 L281.0,251.0 L281.0,248.0 L285.0,242.0 L285.0,239.0 L291.0,228.0 L292.0,223.0 L296.0,217.0 L297.0,210.0 L300.0,205.0 L301.0,198.0 L305.0,189.0 L305.0,184.0 L311.0,163.0 L311.0,154.0 L313.0,149.0 L313.0,108.0 L312.0,107.0 L311.0,94.0 L307.0,84.0 L307.0,80.0 L305.0,78.0 L303.0,70.0 Z
M569.0,203.0 L572.0,206.0 L575.0,207.0 L579.0,206.0 L581.0,207.0 L586.0,205.0 L590.0,201.0 L591.0,196.0 L594.0,193.0 L603.0,193.0 L604.0,192.0 L605.0,193.0 L606.0,192.0 L607.0,193.0 L608.0,192.0 L609.0,193.0 L610.0,192.0 L611.0,193.0 L612.0,192.0 L613.0,193.0 L614.0,192.0 L615.0,193.0 L616.0,192.0 L617.0,193.0 L618.0,192.0 L619.0,193.0 L620.0,192.0 L621.0,193.0 L622.0,192.0 L623.0,193.0 L624.0,192.0 L625.0,193.0 L626.0,192.0 L627.0,193.0 L628.0,192.0 L637.0,192.0 L640.0,194.0 L640.0,200.0 L645.0,206.0 L658.0,206.0 L662.0,204.0 L663.0,202.0 L669.0,206.0 L712.0,206.0 L719.0,203.0 L722.0,203.0 L727.0,201.0 L733.0,196.0 L735.0,191.0 L739.0,187.0 L740.0,182.0 L742.0,179.0 L742.0,143.0 L740.0,135.0 L737.0,133.0 L735.0,127.0 L722.0,117.0 L718.0,117.0 L714.0,115.0 L669.0,115.0 L667.0,116.0 L665.0,120.0 L665.0,130.0 L667.0,134.0 L665.0,140.0 L665.0,197.0 L664.0,198.0 L660.0,198.0 L658.0,195.0 L655.0,195.0 L653.0,193.0 L657.0,188.0 L653.0,181.0 L653.0,178.0 L649.0,171.0 L647.0,163.0 L643.0,157.0 L642.0,151.0 L636.0,139.0 L632.0,124.0 L627.0,118.0 L624.0,119.0 L619.0,115.0 L612.0,115.0 L611.0,114.0 L606.0,115.0 L602.0,118.0 L597.0,134.0 L591.0,145.0 L591.0,148.0 L588.0,153.0 L586.0,161.0 L580.0,174.0 L579.0,180.0 L576.0,183.0 L575.0,190.0 L570.0,198.0 Z
M487.0,117.0 L487.0,128.0 L486.0,129.0 L486.0,134.0 L487.0,135.0 L487.0,149.0 L486.0,150.0 L487.0,152.0 L487.0,165.0 L489.0,168.0 L486.0,174.0 L486.0,178.0 L487.0,179.0 L486.0,182.0 L487.0,185.0 L486.0,201.0 L487.0,204.0 L490.0,206.0 L501.0,206.0 L506.0,201.0 L505.0,192.0 L508.0,188.0 L528.0,187.0 L536.0,189.0 L535.0,190.0 L535.0,195.0 L538.0,201.0 L544.0,206.0 L558.0,206.0 L561.0,205.0 L559.0,197.0 L551.0,185.0 L547.0,183.0 L555.0,177.0 L563.0,160.0 L563.0,154.0 L564.0,153.0 L563.0,142.0 L560.0,134.0 L557.0,131.0 L556.0,127.0 L551.0,122.0 L536.0,115.0 L491.0,115.0 Z
M340.0,116.0 L339.0,120.0 L343.0,126.0 L343.0,128.0 L340.0,130.0 L340.0,133.0 L338.0,135.0 L339.0,139.0 L339.0,200.0 L341.0,205.0 L345.0,207.0 L355.0,206.0 L358.0,198.0 L358.0,193.0 L357.0,192.0 L357.0,186.0 L358.0,185.0 L358.0,181.0 L357.0,180.0 L358.0,160.0 L356.0,155.0 L358.0,153.0 L360.0,153.0 L362.0,155.0 L367.0,164.0 L370.0,166.0 L371.0,170.0 L378.0,178.0 L382.0,185.0 L382.0,187.0 L387.0,190.0 L393.0,186.0 L393.0,184.0 L397.0,180.0 L398.0,176.0 L397.0,174.0 L403.0,169.0 L404.0,166.0 L411.0,159.0 L412.0,155.0 L415.0,152.0 L417.0,155.0 L417.0,159.0 L416.0,160.0 L417.0,161.0 L417.0,165.0 L416.0,166.0 L416.0,179.0 L417.0,180.0 L416.0,182.0 L416.0,200.0 L417.0,204.0 L419.0,206.0 L425.0,206.0 L426.0,207.0 L433.0,205.0 L435.0,198.0 L434.0,194.0 L434.0,134.0 L435.0,133.0 L435.0,121.0 L434.0,118.0 L435.0,116.0 L428.0,114.0 L427.0,115.0 L420.0,115.0 L414.0,117.0 L403.0,136.0 L397.0,142.0 L394.0,147.0 L394.0,149.0 L388.0,158.0 L383.0,153.0 L382.0,149.0 L371.0,136.0 L367.0,128.0 L364.0,125.0 L362.0,119.0 L358.0,115.0 L353.0,115.0 L352.0,114.0 L348.0,115.0 L346.0,114.0 Z
M914.0,115.0 L910.0,115.0 L909.0,114.0 L908.0,115.0 L901.0,115.0 L897.0,119.0 L897.0,124.0 L898.0,125.0 L898.0,167.0 L896.0,169.0 L894.0,169.0 L890.0,165.0 L888.0,160.0 L883.0,156.0 L877.0,146.0 L870.0,139.0 L868.0,134.0 L863.0,129.0 L854.0,116.0 L852.0,115.0 L837.0,115.0 L835.0,117.0 L836.0,124.0 L838.0,127.0 L834.0,134.0 L834.0,143.0 L835.0,144.0 L835.0,148.0 L834.0,149.0 L834.0,165.0 L835.0,166.0 L834.0,174.0 L835.0,175.0 L834.0,201.0 L836.0,205.0 L839.0,206.0 L850.0,206.0 L853.0,201.0 L852.0,166.0 L853.0,165.0 L853.0,151.0 L854.0,150.0 L861.0,156.0 L862.0,159.0 L867.0,164.0 L872.0,172.0 L878.0,178.0 L884.0,189.0 L888.0,192.0 L894.0,202.0 L897.0,205.0 L901.0,206.0 L915.0,205.0 L917.0,197.0 L917.0,182.0 L916.0,181.0 L916.0,158.0 L917.0,157.0 L917.0,151.0 L916.0,150.0 L917.0,128.0 L916.0,127.0 L917.0,126.0 L916.0,125.0 L916.0,117.0 Z
M757.0,115.0 L755.0,118.0 L755.0,147.0 L754.0,148.0 L755.0,151.0 L755.0,168.0 L757.0,170.0 L754.0,179.0 L755.0,182.0 L755.0,202.0 L756.0,204.0 L759.0,206.0 L769.0,206.0 L770.0,207.0 L771.0,206.0 L819.0,206.0 L822.0,205.0 L823.0,203.0 L823.0,193.0 L821.0,188.0 L776.0,187.0 L774.0,185.0 L773.0,181.0 L774.0,177.0 L772.0,174.0 L772.0,171.0 L777.0,169.0 L778.0,170.0 L814.0,170.0 L818.0,167.0 L819.0,160.0 L816.0,153.0 L814.0,152.0 L807.0,152.0 L806.0,151.0 L802.0,152.0 L785.0,152.0 L784.0,151.0 L781.0,152.0 L779.0,151.0 L778.0,152.0 L775.0,151.0 L773.0,149.0 L774.0,147.0 L773.0,138.0 L778.0,133.0 L812.0,133.0 L813.0,134.0 L821.0,133.0 L824.0,124.0 L823.0,118.0 L820.0,115.0 Z
M931.0,115.0 L928.0,117.0 L928.0,123.0 L927.0,124.0 L929.0,132.0 L933.0,134.0 L934.0,133.0 L949.0,133.0 L951.0,135.0 L949.0,138.0 L950.0,142.0 L950.0,203.0 L953.0,206.0 L965.0,207.0 L968.0,203.0 L968.0,139.0 L966.0,135.0 L968.0,133.0 L990.0,133.0 L992.0,130.0 L991.0,126.0 L992.0,125.0 L992.0,117.0 L989.0,115.0 Z
M683.0,133.0 L707.0,133.0 L713.0,135.0 L720.0,141.0 L724.0,149.0 L724.0,173.0 L721.0,180.0 L714.0,186.0 L690.0,188.0 L684.0,185.0 L683.0,183.0 L683.0,137.0 L682.0,136.0 Z
M455.0,115.0 L452.0,117.0 L452.0,141.0 L451.0,142.0 L451.0,182.0 L452.0,183.0 L452.0,192.0 L451.0,193.0 L451.0,197.0 L453.0,205.0 L458.0,207.0 L464.0,207.0 L469.0,204.0 L471.0,199.0 L470.0,198.0 L470.0,122.0 L471.0,119.0 L467.0,115.0 Z
M507.0,134.0 L515.0,134.0 L516.0,133.0 L532.0,133.0 L537.0,135.0 L545.0,146.0 L545.0,156.0 L540.0,165.0 L536.0,168.0 L532.0,169.0 L505.0,169.0 L503.0,167.0 L505.0,163.0 L505.0,147.0 L506.0,146.0 L505.0,137.0 Z
M616.0,139.0 L620.0,148.0 L622.0,150.0 L625.0,164.0 L628.0,166.0 L629.0,169.0 L626.0,174.0 L605.0,174.0 L603.0,172.0 L603.0,167.0 L610.0,151.0 L611.0,145.0 L613.0,141.0 Z"/>
  </g>
</svg>
