<svg xmlns="http://www.w3.org/2000/svg" viewBox="0 0 323 348" role="img" aria-labelledby="title desc">
  <title id="title">Ícono Miradent</title>
  <desc id="desc">Ícono vectorizado del logo Miradent para favicon, app icon o encabezado web. Fondo transparente.</desc>
  <g fill-rule="evenodd" clip-rule="evenodd">
    <path fill="#7A7A7A" d="M57.0,23.0 L49.0,29.0 L47.0,29.0 L34.0,44.0 L22.0,69.0 L23.0,70.0 L21.0,74.0 L21.0,80.0 L19.0,82.0 L18.0,94.0 L17.0,95.0 L16.0,132.0 L17.0,133.0 L17.0,145.0 L19.0,152.0 L19.0,160.0 L21.0,163.0 L21.0,171.0 L23.0,177.0 L23.0,182.0 L26.0,188.0 L26.0,194.0 L28.0,196.0 L29.0,203.0 L31.0,206.0 L31.0,209.0 L34.0,215.0 L34.0,218.0 L36.0,221.0 L39.0,232.0 L41.0,233.0 L41.0,236.0 L44.0,241.0 L44.0,244.0 L46.0,245.0 L47.0,250.0 L50.0,254.0 L50.0,256.0 L53.0,259.0 L53.0,262.0 L56.0,265.0 L58.0,271.0 L61.0,274.0 L61.0,276.0 L73.0,293.0 L74.0,296.0 L80.0,302.0 L80.0,304.0 L90.0,314.0 L89.0,316.0 L91.0,315.0 L98.0,321.0 L102.0,323.0 L105.0,323.0 L115.0,316.0 L122.0,305.0 L122.0,303.0 L128.0,295.0 L130.0,289.0 L133.0,286.0 L132.0,285.0 L134.0,283.0 L135.0,285.0 L134.0,282.0 L136.0,281.0 L139.0,272.0 L143.0,268.0 L146.0,260.0 L151.0,255.0 L155.0,248.0 L161.0,242.0 L173.0,236.0 L180.0,239.0 L187.0,244.0 L191.0,249.0 L189.0,251.0 L191.0,251.0 L192.0,253.0 L193.0,251.0 L198.0,257.0 L198.0,301.0 L197.0,302.0 L196.0,300.0 L198.0,303.0 L198.0,307.0 L197.0,308.0 L198.0,316.0 L197.0,319.0 L201.0,326.0 L207.0,327.0 L208.0,329.0 L209.0,328.0 L210.0,329.0 L212.0,328.0 L219.0,328.0 L222.0,327.0 L225.0,324.0 L227.0,325.0 L229.0,319.0 L234.0,314.0 L235.0,309.0 L240.0,305.0 L240.0,303.0 L242.0,301.0 L243.0,302.0 L242.0,306.0 L243.0,307.0 L245.0,306.0 L247.0,301.0 L245.0,300.0 L243.0,302.0 L242.0,301.0 L243.0,297.0 L246.0,295.0 L253.0,284.0 L252.0,281.0 L253.0,279.0 L260.0,272.0 L260.0,270.0 L267.0,259.0 L268.0,254.0 L271.0,253.0 L273.0,245.0 L278.0,238.0 L279.0,235.0 L278.0,232.0 L283.0,226.0 L283.0,223.0 L286.0,220.0 L286.0,217.0 L290.0,209.0 L291.0,211.0 L290.0,207.0 L292.0,205.0 L293.0,199.0 L295.0,196.0 L295.0,190.0 L299.0,183.0 L299.0,174.0 L301.0,170.0 L301.0,167.0 L304.0,162.0 L304.0,154.0 L305.0,153.0 L304.0,151.0 L306.0,148.0 L306.0,144.0 L307.0,143.0 L310.0,146.0 L310.0,144.0 L307.0,141.0 L308.0,138.0 L308.0,133.0 L307.0,132.0 L307.0,106.0 L306.0,105.0 L307.0,104.0 L307.0,97.0 L305.0,92.0 L305.0,87.0 L303.0,83.0 L303.0,78.0 L301.0,76.0 L301.0,72.0 L299.0,67.0 L297.0,66.0 L297.0,62.0 L295.0,57.0 L292.0,54.0 L291.0,51.0 L289.0,49.0 L288.0,50.0 L285.0,46.0 L281.0,50.0 L279.0,49.0 L279.0,52.0 L277.0,53.0 L279.0,54.0 L278.0,55.0 L281.0,58.0 L282.0,61.0 L285.0,62.0 L285.0,70.0 L288.0,75.0 L288.0,85.0 L289.0,86.0 L288.0,91.0 L290.0,98.0 L290.0,109.0 L291.0,110.0 L291.0,125.0 L288.0,134.0 L288.0,141.0 L286.0,142.0 L287.0,147.0 L285.0,152.0 L285.0,159.0 L282.0,163.0 L279.0,171.0 L280.0,172.0 L279.0,180.0 L276.0,184.0 L276.0,189.0 L274.0,195.0 L270.0,201.0 L269.0,200.0 L270.0,197.0 L269.0,196.0 L270.0,195.0 L269.0,194.0 L268.0,195.0 L269.0,204.0 L267.0,208.0 L267.0,214.0 L262.0,218.0 L262.0,226.0 L258.0,232.0 L256.0,232.0 L256.0,236.0 L252.0,242.0 L250.0,239.0 L249.0,241.0 L250.0,245.0 L247.0,249.0 L246.0,255.0 L245.0,256.0 L243.0,254.0 L241.0,254.0 L241.0,256.0 L244.0,258.0 L241.0,262.0 L239.0,262.0 L241.0,264.0 L238.0,270.0 L236.0,272.0 L231.0,265.0 L231.0,268.0 L235.0,271.0 L235.0,274.0 L233.0,280.0 L228.0,285.0 L227.0,284.0 L228.0,280.0 L226.0,283.0 L224.0,277.0 L224.0,274.0 L228.0,272.0 L228.0,271.0 L224.0,269.0 L224.0,262.0 L225.0,261.0 L226.0,244.0 L229.0,239.0 L226.0,236.0 L228.0,229.0 L228.0,208.0 L229.0,207.0 L229.0,143.0 L230.0,142.0 L230.0,134.0 L229.0,133.0 L229.0,110.0 L227.0,103.0 L224.0,100.0 L224.0,96.0 L222.0,94.0 L209.0,94.0 L207.0,96.0 L204.0,96.0 L202.0,100.0 L197.0,102.0 L193.0,109.0 L191.0,108.0 L191.0,106.0 L191.0,109.0 L190.0,110.0 L188.0,109.0 L190.0,111.0 L187.0,114.0 L185.0,114.0 L185.0,117.0 L183.0,118.0 L181.0,116.0 L183.0,118.0 L181.0,120.0 L180.0,118.0 L181.0,120.0 L180.0,124.0 L177.0,126.0 L175.0,132.0 L171.0,135.0 L169.0,141.0 L166.0,143.0 L163.0,134.0 L164.0,133.0 L161.0,128.0 L161.0,116.0 L158.0,109.0 L159.0,108.0 L158.0,104.0 L154.0,99.0 L155.0,98.0 L152.0,96.0 L152.0,90.0 L147.0,84.0 L146.0,79.0 L141.0,77.0 L139.0,72.0 L132.0,68.0 L133.0,65.0 L131.0,64.0 L132.0,66.0 L131.0,68.0 L127.0,65.0 L124.0,66.0 L123.0,65.0 L124.0,63.0 L126.0,63.0 L122.0,64.0 L120.0,67.0 L114.0,66.0 L110.0,70.0 L105.0,71.0 L100.0,75.0 L100.0,78.0 L95.0,81.0 L94.0,83.0 L91.0,80.0 L90.0,81.0 L90.0,83.0 L93.0,86.0 L92.0,87.0 L91.0,86.0 L90.0,91.0 L87.0,93.0 L88.0,95.0 L86.0,97.0 L86.0,100.0 L79.0,110.0 L79.0,113.0 L77.0,117.0 L77.0,122.0 L75.0,126.0 L72.0,128.0 L72.0,131.0 L70.0,134.0 L70.0,141.0 L64.0,154.0 L64.0,162.0 L62.0,168.0 L62.0,177.0 L60.0,179.0 L61.0,181.0 L60.0,182.0 L59.0,210.0 L58.0,211.0 L60.0,215.0 L60.0,221.0 L62.0,226.0 L61.0,229.0 L64.0,236.0 L63.0,237.0 L65.0,238.0 L66.0,242.0 L73.0,249.0 L75.0,253.0 L78.0,251.0 L81.0,251.0 L83.0,253.0 L84.0,252.0 L85.0,253.0 L97.0,253.0 L100.0,250.0 L104.0,250.0 L105.0,251.0 L104.0,252.0 L105.0,252.0 L104.0,248.0 L102.0,247.0 L104.0,245.0 L103.0,244.0 L98.0,244.0 L94.0,241.0 L92.0,242.0 L91.0,240.0 L90.0,241.0 L88.0,239.0 L89.0,238.0 L86.0,232.0 L86.0,229.0 L83.0,224.0 L83.0,214.0 L84.0,213.0 L85.0,198.0 L87.0,195.0 L85.0,193.0 L90.0,181.0 L91.0,174.0 L93.0,172.0 L95.0,160.0 L97.0,159.0 L96.0,156.0 L98.0,149.0 L102.0,142.0 L105.0,144.0 L107.0,141.0 L106.0,142.0 L103.0,137.0 L105.0,136.0 L105.0,133.0 L110.0,128.0 L113.0,120.0 L117.0,116.0 L120.0,116.0 L122.0,114.0 L126.0,118.0 L128.0,123.0 L127.0,125.0 L129.0,126.0 L129.0,129.0 L133.0,135.0 L134.0,143.0 L133.0,144.0 L132.0,143.0 L132.0,144.0 L135.0,146.0 L135.0,149.0 L136.0,148.0 L138.0,151.0 L138.0,155.0 L140.0,158.0 L140.0,163.0 L143.0,174.0 L143.0,179.0 L145.0,181.0 L145.0,186.0 L147.0,191.0 L147.0,197.0 L150.0,201.0 L155.0,201.0 L156.0,202.0 L166.0,201.0 L170.0,197.0 L169.0,195.0 L172.0,193.0 L172.0,191.0 L177.0,187.0 L179.0,182.0 L186.0,178.0 L187.0,176.0 L186.0,173.0 L189.0,169.0 L192.0,169.0 L198.0,155.0 L199.0,156.0 L200.0,154.0 L202.0,155.0 L202.0,164.0 L201.0,165.0 L202.0,182.0 L200.0,188.0 L199.0,244.0 L198.0,245.0 L195.0,244.0 L196.0,238.0 L195.0,241.0 L190.0,235.0 L188.0,230.0 L187.0,231.0 L186.0,228.0 L178.0,220.0 L176.0,220.0 L172.0,217.0 L161.0,217.0 L160.0,219.0 L154.0,222.0 L147.0,230.0 L145.0,230.0 L146.0,231.0 L142.0,235.0 L142.0,237.0 L138.0,241.0 L131.0,251.0 L129.0,256.0 L126.0,259.0 L125.0,263.0 L120.0,270.0 L111.0,287.0 L104.0,295.0 L99.0,297.0 L90.0,289.0 L83.0,280.0 L83.0,277.0 L79.0,273.0 L77.0,268.0 L75.0,267.0 L75.0,264.0 L72.0,261.0 L69.0,253.0 L67.0,251.0 L67.0,247.0 L60.0,237.0 L60.0,233.0 L58.0,231.0 L59.0,229.0 L55.0,225.0 L53.0,216.0 L50.0,211.0 L50.0,208.0 L47.0,202.0 L47.0,197.0 L45.0,195.0 L45.0,191.0 L41.0,184.0 L41.0,176.0 L42.0,174.0 L41.0,176.0 L38.0,168.0 L38.0,161.0 L36.0,158.0 L36.0,146.0 L35.0,145.0 L35.0,138.0 L34.0,137.0 L35.0,134.0 L34.0,133.0 L33.0,121.0 L35.0,118.0 L34.0,115.0 L35.0,114.0 L35.0,107.0 L36.0,106.0 L36.0,95.0 L38.0,93.0 L39.0,96.0 L38.0,89.0 L41.0,79.0 L44.0,75.0 L45.0,70.0 L51.0,61.0 L61.0,51.0 L73.0,44.0 L80.0,44.0 L81.0,43.0 L98.0,44.0 L101.0,46.0 L109.0,47.0 L112.0,49.0 L117.0,49.0 L122.0,52.0 L127.0,52.0 L128.0,54.0 L133.0,54.0 L136.0,56.0 L141.0,56.0 L150.0,59.0 L169.0,59.0 L171.0,57.0 L174.0,58.0 L182.0,54.0 L185.0,54.0 L186.0,52.0 L191.0,51.0 L198.0,46.0 L201.0,46.0 L200.0,45.0 L201.0,44.0 L203.0,44.0 L215.0,37.0 L220.0,36.0 L226.0,32.0 L230.0,32.0 L234.0,30.0 L247.0,30.0 L250.0,32.0 L263.0,35.0 L265.0,37.0 L270.0,37.0 L271.0,36.0 L267.0,34.0 L268.0,32.0 L267.0,33.0 L264.0,32.0 L260.0,28.0 L259.0,29.0 L256.0,26.0 L246.0,22.0 L245.0,20.0 L241.0,20.0 L239.0,18.0 L234.0,18.0 L231.0,16.0 L208.0,18.0 L205.0,20.0 L201.0,20.0 L199.0,22.0 L192.0,23.0 L181.0,28.0 L177.0,28.0 L168.0,31.0 L148.0,30.0 L140.0,28.0 L134.0,25.0 L124.0,23.0 L121.0,21.0 L113.0,20.0 L111.0,18.0 L106.0,18.0 L101.0,16.0 L96.0,16.0 L95.0,17.0 L93.0,16.0 L82.0,16.0 L76.0,18.0 L71.0,18.0 Z
M292.0,55.0 L296.0,62.0 L298.0,70.0 L300.0,72.0 L300.0,76.0 L304.0,86.0 L305.0,99.0 L306.0,100.0 L306.0,141.0 L304.0,146.0 L304.0,155.0 L300.0,167.0 L298.0,181.0 L294.0,190.0 L293.0,197.0 L290.0,202.0 L289.0,209.0 L285.0,215.0 L284.0,220.0 L278.0,231.0 L278.0,234.0 L274.0,240.0 L274.0,243.0 L267.0,254.0 L266.0,258.0 L260.0,269.0 L253.0,278.0 L252.0,282.0 L247.0,291.0 L237.0,304.0 L227.0,321.0 L223.0,325.0 L219.0,327.0 L213.0,327.0 L212.0,328.0 L211.0,327.0 L207.0,327.0 L204.0,326.0 L201.0,323.0 L198.0,317.0 L198.0,302.0 L199.0,301.0 L199.0,258.0 L198.0,255.0 L200.0,252.0 L200.0,234.0 L202.0,226.0 L202.0,184.0 L203.0,183.0 L203.0,150.0 L202.0,149.0 L198.0,153.0 L197.0,157.0 L195.0,158.0 L192.0,165.0 L187.0,169.0 L185.0,174.0 L183.0,175.0 L182.0,178.0 L175.0,186.0 L175.0,188.0 L172.0,190.0 L168.0,196.0 L162.0,201.0 L155.0,201.0 L149.0,197.0 L148.0,191.0 L146.0,187.0 L145.0,177.0 L142.0,169.0 L141.0,160.0 L139.0,157.0 L138.0,147.0 L136.0,144.0 L133.0,133.0 L129.0,126.0 L129.0,124.0 L123.0,114.0 L119.0,114.0 L115.0,116.0 L106.0,129.0 L104.0,135.0 L99.0,143.0 L96.0,155.0 L93.0,161.0 L93.0,165.0 L89.0,174.0 L88.0,183.0 L85.0,192.0 L85.0,198.0 L83.0,203.0 L83.0,228.0 L86.0,233.0 L86.0,236.0 L90.0,242.0 L93.0,244.0 L98.0,245.0 L101.0,249.0 L94.0,253.0 L86.0,253.0 L76.0,249.0 L68.0,241.0 L63.0,231.0 L61.0,215.0 L60.0,214.0 L60.0,188.0 L61.0,187.0 L63.0,168.0 L65.0,164.0 L65.0,158.0 L67.0,155.0 L68.0,148.0 L71.0,140.0 L71.0,136.0 L73.0,134.0 L75.0,126.0 L79.0,119.0 L81.0,110.0 L83.0,109.0 L86.0,100.0 L91.0,94.0 L91.0,92.0 L95.0,85.0 L101.0,78.0 L113.0,69.0 L124.0,68.0 L125.0,67.0 L132.0,69.0 L138.0,73.0 L140.0,77.0 L142.0,77.0 L144.0,79.0 L151.0,92.0 L152.0,98.0 L156.0,104.0 L156.0,108.0 L158.0,110.0 L159.0,119.0 L161.0,124.0 L161.0,130.0 L164.0,136.0 L165.0,147.0 L169.0,143.0 L172.0,136.0 L177.0,131.0 L178.0,127.0 L187.0,118.0 L197.0,104.0 L202.0,101.0 L205.0,97.0 L212.0,94.0 L217.0,94.0 L223.0,100.0 L225.0,104.0 L225.0,107.0 L228.0,114.0 L228.0,125.0 L229.0,126.0 L229.0,173.0 L228.0,174.0 L228.0,203.0 L227.0,204.0 L227.0,222.0 L226.0,223.0 L227.0,225.0 L226.0,226.0 L225.0,254.0 L224.0,255.0 L224.0,264.0 L223.0,265.0 L224.0,268.0 L223.0,269.0 L223.0,287.0 L221.0,290.0 L222.0,294.0 L225.0,293.0 L232.0,284.0 L235.0,276.0 L241.0,268.0 L241.0,266.0 L247.0,255.0 L251.0,251.0 L251.0,247.0 L253.0,245.0 L255.0,239.0 L257.0,237.0 L257.0,235.0 L263.0,224.0 L263.0,221.0 L267.0,215.0 L269.0,207.0 L271.0,205.0 L272.0,200.0 L275.0,194.0 L275.0,191.0 L278.0,186.0 L278.0,183.0 L281.0,177.0 L281.0,172.0 L286.0,158.0 L289.0,136.0 L291.0,130.0 L291.0,91.0 L289.0,87.0 L290.0,85.0 L289.0,76.0 L286.0,68.0 L285.0,58.0 L283.0,56.0 L283.0,50.0 L284.0,49.0 L287.0,50.0 Z
M224.0,279.0 L226.0,283.0 L225.0,284.0 L228.0,285.0 L228.0,288.0 L227.0,289.0 L226.0,287.0 L225.0,291.0 L223.0,285.0 L223.0,280.0 Z
M310.0,78.0 L310.0,83.0 L311.0,83.0 L312.0,79.0 Z
M227.0,238.0 L228.0,239.0 L227.0,242.0 L226.0,241.0 Z
M252.0,228.0 L253.0,232.0 L254.0,230.0 Z
M197.0,171.0 L196.0,172.0 L195.0,169.0 L193.0,173.0 L195.0,172.0 L197.0,173.0 Z
M128.0,142.0 L127.0,143.0 L129.0,144.0 L130.0,143.0 Z
M107.0,134.0 L108.0,137.0 L110.0,136.0 Z"/>
    <path fill="#009CA1" d="M291.0,55.0 L287.0,51.0 L284.0,50.0 L284.0,56.0 L286.0,58.0 L287.0,68.0 L290.0,76.0 L290.0,82.0 L291.0,83.0 L290.0,87.0 L292.0,91.0 L292.0,130.0 L290.0,136.0 L287.0,158.0 L282.0,172.0 L282.0,177.0 L280.0,180.0 L279.0,186.0 L276.0,191.0 L276.0,194.0 L273.0,200.0 L272.0,205.0 L270.0,207.0 L268.0,215.0 L264.0,221.0 L264.0,224.0 L258.0,235.0 L258.0,237.0 L256.0,239.0 L254.0,245.0 L252.0,247.0 L252.0,251.0 L248.0,255.0 L242.0,266.0 L242.0,268.0 L236.0,276.0 L233.0,284.0 L225.0,294.0 L222.0,295.0 L220.0,293.0 L220.0,290.0 L222.0,287.0 L222.0,269.0 L223.0,268.0 L222.0,265.0 L223.0,264.0 L224.0,237.0 L225.0,236.0 L225.0,226.0 L226.0,225.0 L225.0,223.0 L226.0,222.0 L227.0,174.0 L228.0,173.0 L228.0,126.0 L227.0,125.0 L227.0,114.0 L224.0,107.0 L224.0,104.0 L222.0,100.0 L217.0,95.0 L212.0,95.0 L207.0,97.0 L202.0,102.0 L198.0,104.0 L188.0,118.0 L179.0,127.0 L178.0,131.0 L173.0,136.0 L170.0,143.0 L165.0,148.0 L163.0,144.0 L163.0,136.0 L160.0,130.0 L160.0,124.0 L158.0,119.0 L157.0,110.0 L155.0,108.0 L155.0,104.0 L151.0,98.0 L150.0,92.0 L143.0,79.0 L140.0,78.0 L138.0,74.0 L132.0,70.0 L125.0,68.0 L124.0,69.0 L113.0,70.0 L101.0,79.0 L96.0,85.0 L92.0,92.0 L92.0,94.0 L87.0,100.0 L84.0,109.0 L82.0,110.0 L80.0,119.0 L76.0,126.0 L74.0,134.0 L72.0,136.0 L72.0,140.0 L69.0,148.0 L68.0,155.0 L66.0,158.0 L66.0,164.0 L64.0,168.0 L62.0,187.0 L61.0,188.0 L61.0,214.0 L62.0,215.0 L64.0,231.0 L69.0,241.0 L76.0,248.0 L82.0,251.0 L94.0,252.0 L100.0,249.0 L98.0,246.0 L93.0,245.0 L90.0,243.0 L85.0,236.0 L85.0,233.0 L82.0,228.0 L82.0,203.0 L84.0,198.0 L84.0,192.0 L87.0,183.0 L88.0,174.0 L92.0,165.0 L92.0,161.0 L95.0,155.0 L98.0,143.0 L101.0,139.0 L105.0,129.0 L115.0,115.0 L119.0,113.0 L123.0,113.0 L130.0,124.0 L130.0,126.0 L134.0,133.0 L137.0,144.0 L139.0,147.0 L140.0,157.0 L142.0,160.0 L143.0,169.0 L146.0,177.0 L146.0,182.0 L150.0,197.0 L155.0,200.0 L162.0,200.0 L167.0,196.0 L171.0,190.0 L174.0,188.0 L174.0,186.0 L181.0,178.0 L182.0,175.0 L184.0,174.0 L186.0,169.0 L191.0,165.0 L194.0,158.0 L196.0,157.0 L197.0,153.0 L202.0,148.0 L204.0,150.0 L204.0,183.0 L203.0,184.0 L203.0,226.0 L201.0,234.0 L201.0,252.0 L199.0,255.0 L200.0,258.0 L199.0,317.0 L202.0,323.0 L207.0,326.0 L211.0,326.0 L212.0,327.0 L213.0,326.0 L219.0,326.0 L223.0,324.0 L226.0,321.0 L236.0,304.0 L246.0,291.0 L251.0,282.0 L252.0,278.0 L259.0,269.0 L265.0,258.0 L266.0,254.0 L273.0,243.0 L273.0,240.0 L277.0,234.0 L277.0,231.0 L283.0,220.0 L284.0,215.0 L288.0,209.0 L289.0,202.0 L292.0,197.0 L293.0,190.0 L297.0,181.0 L297.0,176.0 L303.0,155.0 L303.0,146.0 L305.0,141.0 L305.0,100.0 L304.0,99.0 L303.0,86.0 L299.0,76.0 L299.0,72.0 L297.0,70.0 L295.0,62.0 Z"/>
  </g>
</svg>
